<svg xmlns="http://www.w3.org/2000/svg" style="display:none;">

	<!-- DUMMY ICON TO BE REPLACED -->
	<symbol id="icon-quote" viewBox="0 0 24 24">
		<title id="title-icon-quote">Quote Icon</title>
		<desc id="desc-icon-quote">Icon showing an open quote symbol</desc>
		<path d="M10.3 1v4c0 .5-.4 1-1 1-1.9 0-3 2-3.1 5.8h3.1c.5 0 1 .4 1 1v8.2c0 .5-.4 1-1 1h-8.3c-.5 0-1-.4-1-1v-8.3c0-1.9.2-3.6.6-5.1.4-1.5 1-2.9 1.7-4 .8-1.1 1.8-2 3-2.7 1.2-.6 2.5-1 4.1-1 .5.1.9.5.9 1.1zm12.7 4.9c.5 0 1-.4 1-1v-3.9c0-.5-.4-1-1-1-1.5 0-2.9.3-4.1 1-1.2.6-2.2 1.5-3 2.7-.8 1.1-1.4 2.5-1.7 4-.4 1.5-.6 3.2-.6 5.1v8.2c0 .5.4 1 1 1h8.4c.5 0 1-.4 1-1v-8.3c0-.5-.4-1-1-1h-3.1c.2-3.8 1.2-5.8 3.1-5.8z"/>
	</symbol>


</svg>